<?xml version="1.0" standalone="no"?>
<!DOCTYPE svg PUBLIC "-//W3C//DTD SVG 20010904//EN"
 "http://www.w3.org/TR/2001/REC-SVG-20010904/DTD/svg10.dtd">
<svg version="1.0" xmlns="http://www.w3.org/2000/svg"
 width="398.000000pt" height="398.000000pt" viewBox="0 0 398.000000 398.000000"
 preserveAspectRatio="xMidYMid meet">
<metadata>
Created by potrace 1.14, written by Peter Selinger 2001-2017
</metadata>
<g transform="translate(0.000000,398.000000) scale(0.100000,-0.100000)"
fill="#000000" stroke="none">
<path d="M2911 3900 c-48 -36 -48 -96 1 -194 11 -21 22 -51 24 -65 3 -14 11
-62 19 -106 8 -44 16 -96 19 -115 9 -76 47 -124 91 -115 11 2 23 4 27 4 18 2
48 47 48 72 l0 27 53 -29 c59 -32 85 -35 127 -14 l29 15 -3 -60 c-3 -73 13
-114 53 -134 37 -20 45 -20 87 0 51 24 56 51 48 304 -3 123 -8 232 -10 244 -3
11 -9 43 -14 70 -23 115 -91 139 -157 56 -26 -32 -30 -62 -19 -147 18 -144 14
-251 -8 -214 -3 5 -29 20 -58 35 -29 14 -64 34 -77 45 l-24 18 31 39 c51 64
49 129 -5 153 -33 15 -54 14 -81 -5 -20 -14 -22 -14 -22 3 -1 37 -39 102 -69
118 -37 18 -82 17 -110 -5z"/>
<path d="M1545 3880 c-61 -36 -81 -60 -95 -111 -19 -69 -20 -106 -6 -153 13
-41 12 -49 -4 -80 -24 -47 -15 -84 25 -107 22 -13 35 -30 39 -51 3 -17 24 -57
46 -90 22 -33 40 -71 40 -84 0 -67 55 -106 107 -76 80 46 96 70 82 130 -5 24
-18 60 -28 80 -10 21 -19 52 -19 70 0 18 -7 46 -16 62 -8 17 -10 30 -5 30 6 0
21 11 34 25 43 42 27 112 -30 139 -30 14 -36 14 -70 0 -31 -13 -39 -13 -46 -2
-13 20 -11 51 7 76 13 19 18 20 36 11 41 -22 82 -21 106 1 45 42 21 101 -55
139 -56 28 -88 26 -148 -9z"/>
<path d="M1193 3883 c-17 -8 -36 -26 -43 -41 -12 -27 -14 -153 -4 -219 4 -23
1 -33 -8 -34 -36 -2 -60 -11 -101 -39 -57 -38 -60 -46 -73 -155 -9 -81 -7
-100 15 -149 15 -36 27 -46 82 -71 45 -21 81 -30 121 -31 39 0 64 -6 77 -18
26 -24 72 -35 101 -24 54 20 73 66 59 141 -4 23 -10 62 -14 87 -3 25 -8 56
-10 70 -6 40 -35 242 -40 280 -2 19 -7 57 -11 85 -8 67 -19 91 -46 109 -35 22
-71 26 -105 9z"/>
<path d="M2345 3852 c-65 -14 -82 -76 -91 -338 -5 -146 2 -186 34 -210 27 -21
72 -16 108 11 40 30 51 31 59 5 12 -37 73 -55 118 -35 22 9 44 53 41 80 -2 11
-5 52 -7 92 -4 58 -11 82 -38 127 -31 52 -55 70 -104 78 -17 3 -20 10 -17 53
3 66 -13 109 -46 125 -34 18 -33 17 -57 12z"/>
<path d="M2657 3808 c-65 -62 -59 -140 13 -163 15 -5 18 -11 11 -23 -10 -20
-7 -42 12 -102 61 -189 69 -241 42 -276 -8 -10 -15 -32 -15 -47 0 -64 48 -100
113 -85 87 19 106 50 100 165 -5 125 -82 336 -134 374 -20 14 -27 25 -21 32
28 36 20 106 -16 133 -27 21 -78 17 -105 -8z"/>
<path d="M3741 3823 c-63 -24 -91 -135 -45 -174 13 -10 11 -16 -10 -38 -32
-33 -36 -79 -11 -124 18 -34 18 -35 -5 -67 -43 -61 -20 -130 44 -130 81 0 156
104 156 214 -1 34 -7 75 -14 91 -12 27 -11 33 11 58 13 16 23 42 23 58 0 38
-24 85 -50 99 -25 13 -80 20 -99 13z"/>
<path d="M600 3771 c-46 -19 -96 -79 -104 -124 -11 -60 30 -138 83 -159 l25
-9 -25 -24 -24 -24 -55 57 c-30 32 -73 79 -95 106 -47 57 -71 63 -151 35 -79
-28 -91 -37 -131 -103 -51 -84 -49 -185 8 -285 29 -52 60 -69 119 -67 59 3 85
18 115 66 25 40 26 40 58 27 41 -17 89 -5 116 29 l21 27 22 -28 c31 -40 93
-65 161 -65 90 0 139 35 187 135 59 122 -20 265 -145 265 l-36 0 19 25 c17 21
19 32 11 58 -5 17 -9 32 -9 33 0 1 -12 6 -27 12 -35 14 -123 22 -143 13z"/>
<path d="M2031 3649 c-40 -9 -85 -25 -100 -36 -36 -27 -61 -80 -61 -130 0 -48
41 -147 68 -162 20 -11 11 -23 -21 -28 -66 -10 -78 -83 -26 -164 37 -59 65
-79 111 -83 40 -4 122 35 143 68 18 27 45 147 50 221 2 28 7 86 11 130 6 76
-3 140 -25 173 -15 25 -73 29 -150 11z"/>
<path d="M143 3108 c-12 -6 -27 -24 -34 -41 -17 -41 -18 -199 -2 -322 8 -55
12 -125 10 -155 -7 -92 24 -140 91 -140 29 0 73 38 84 71 3 8 18 4 48 -11 62
-32 132 -33 162 -2 18 17 23 34 23 71 0 60 -24 90 -102 126 -29 14 -53 29 -53
34 0 11 39 60 73 91 15 14 30 39 33 57 5 26 1 37 -20 58 -33 33 -60 29 -128
-22 l-48 -35 0 72 c0 70 -13 114 -42 138 -20 16 -70 22 -95 10z"/>
<path d="M1170 3043 c-14 -9 -26 -17 -27 -18 -1 0 -9 -17 -17 -36 -13 -32 -13
-39 4 -76 15 -35 25 -43 54 -49 42 -7 41 -6 20 -46 -46 -89 -61 -223 -30 -270
17 -26 62 -49 88 -44 60 11 83 44 92 135 6 74 12 84 21 43 11 -53 82 -100 151
-99 30 0 46 -6 67 -26 14 -15 37 -27 50 -27 30 0 77 35 78 58 0 13 4 11 17 -8
36 -53 63 -70 111 -70 25 0 63 4 83 9 31 7 40 5 54 -10 26 -29 85 -25 115 7
27 29 30 71 16 199 -4 39 -10 88 -12 110 -17 156 -23 173 -73 198 -36 19 -72
12 -99 -18 -19 -22 -22 -34 -18 -94 4 -67 4 -68 -20 -64 -13 3 -39 -2 -57 -12
-18 -9 -42 -18 -53 -21 -27 -5 -65 -50 -65 -76 0 -12 -3 -19 -6 -16 -6 7 -7
12 -19 81 -13 81 -60 117 -156 117 -66 0 -169 -59 -169 -98 0 -7 -16 3 -35 24
-32 34 -34 39 -20 54 18 19 20 69 4 103 -23 51 -102 73 -149 40z"/>
<path d="M582 2998 c-27 -14 -42 -63 -30 -103 5 -16 11 -48 14 -70 9 -61 90
-222 117 -231 35 -12 59 -11 102 4 54 20 73 39 84 81 6 20 15 57 22 84 11 45
29 64 29 32 0 -9 10 -26 23 -38 20 -21 22 -34 25 -127 1 -58 3 -127 5 -155 l2
-49 -74 -31 c-73 -30 -98 -52 -106 -94 -11 -58 52 -108 123 -99 53 8 177 82
215 130 24 30 29 45 30 95 0 32 -3 78 -7 103 -5 25 -10 61 -12 80 -8 78 -29
150 -45 150 -4 0 -2 15 5 33 25 61 -6 121 -71 133 -36 7 -93 -11 -93 -30 0 -6
-9 7 -19 29 -21 47 -36 60 -76 68 -38 7 -59 -5 -94 -54 l-29 -39 -10 27 c-22
65 -80 96 -130 71z"/>
<path d="M2955 2905 c-208 -45 -346 -140 -420 -291 -32 -64 -37 -85 -37 -142
0 -63 -22 -224 -33 -242 -3 -4 -13 -6 -23 -3 -10 2 -24 -2 -30 -9 -15 -19 -18
-79 -4 -104 15 -29 23 -95 27 -241 6 -191 19 -266 66 -363 40 -84 104 -179
144 -212 19 -17 10 -17 -176 -18 -181 0 -198 -1 -210 -19 -11 -14 -32 -21 -84
-25 -38 -4 -88 -10 -110 -14 -22 -4 -56 -6 -75 -3 -48 6 -167 6 -215 -1 -22
-4 -109 -20 -193 -38 -109 -23 -156 -29 -165 -21 -7 5 -51 17 -98 25 -46 8
-129 26 -184 40 -55 14 -118 26 -141 26 -38 0 -82 10 -129 30 -145 62 -210 78
-337 86 -51 3 -100 7 -108 10 -8 3 -41 7 -72 10 -31 3 -81 13 -110 23 -57 19
-109 19 -145 0 -32 -17 -46 -68 -38 -142 5 -56 14 -100 49 -262 4 -18 50 -172
70 -233 7 -21 5 -22 -31 -17 -21 2 -62 7 -90 9 l-53 4 0 -384 0 -384 1990 0
1990 0 0 95 c0 69 -3 95 -12 96 -7 0 -22 2 -33 4 -11 2 -42 6 -70 9 -27 4 -60
8 -71 10 -22 4 -263 42 -319 50 -16 2 -43 5 -58 5 -27 1 -28 2 -22 44 4 23 20
92 36 152 16 61 46 176 67 257 32 128 40 148 65 165 30 20 67 90 67 125 0 65
-29 116 -87 155 -25 17 -294 94 -305 87 -4 -3 -17 -2 -30 1 -19 5 -23 14 -26
49 -3 42 -2 43 55 79 32 19 68 46 80 59 21 22 72 116 91 169 9 22 15 25 40 21
49 -7 94 14 151 71 69 66 104 141 106 222 1 33 9 83 18 110 27 83 39 146 42
235 7 159 -30 267 -119 354 -30 29 -62 68 -71 86 -41 80 -142 147 -272 181
-98 25 -266 32 -348 14z m-2805 -1540 c-7 -8 -18 -15 -24 -15 -6 0 -2 7 8 15
25 19 32 19 16 0z m1555 -411 c88 -4 167 -10 175 -14 9 -5 30 -2 47 5 29 12
35 12 49 -2 14 -15 14 -17 -3 -33 -30 -29 -120 -49 -195 -43 -64 5 -68 4 -77
-18 -4 -13 -6 -29 -4 -36 9 -22 77 -41 141 -39 34 1 62 2 62 0 0 -10 -56 -34
-91 -39 -59 -9 -79 -21 -79 -50 0 -34 32 -48 88 -40 43 6 44 6 28 -10 -10 -10
-16 -29 -14 -44 3 -24 1 -26 -36 -23 -36 4 -80 14 -219 53 l-47 13 -26 81
c-27 87 -41 187 -30 229 6 24 10 26 39 22 18 -3 104 -8 192 -12z m563 -4 c2
-5 11 -10 20 -10 26 0 1 -18 -33 -24 -23 -4 -41 2 -75 25 l-45 31 65 -6 c36
-3 66 -10 68 -16z m236 -220 c9 -9 23 -240 14 -240 -2 0 -29 4 -59 10 -30 5
-72 12 -94 15 -22 3 -69 10 -105 16 -69 12 -96 15 -147 17 l-33 2 22 45 c17
34 33 50 66 67 24 11 58 35 75 53 l30 32 111 -4 c61 -3 115 -8 120 -13z m-569
-70 c-3 -5 -14 -10 -23 -10 -15 0 -15 2 -2 10 20 13 33 13 25 0z m69 -75 c-14
-21 -24 -25 -63 -24 l-46 2 43 6 c23 4 50 15 60 24 23 24 25 21 6 -8z"/>
<path d="M557 2367 c-28 -21 -34 -59 -31 -197 4 -222 27 -344 70 -368 25 -14
71 -2 96 25 22 23 23 31 22 161 0 75 -3 160 -6 188 -7 57 -42 148 -69 179 -21
24 -59 30 -82 12z"/>
<path d="M331 2324 c-37 -31 -37 -103 -1 -138 50 -50 138 -28 166 41 38 89
-88 163 -165 97z"/>
<path d="M1356 2289 c-25 -20 -30 -35 -41 -126 -5 -39 -11 -53 -23 -53 -8 0
-35 -11 -59 -25 -102 -60 -117 -223 -26 -282 24 -16 85 -24 183 -25 36 0 68
43 76 103 5 38 10 49 21 45 8 -4 21 -6 28 -6 10 0 13 -11 11 -37 -7 -76 47
-123 103 -92 20 11 29 28 40 77 9 39 20 62 28 62 24 0 61 31 71 59 14 40 -12
90 -50 98 -41 8 -38 46 7 88 46 41 51 70 20 101 -31 31 -81 32 -125 2 -40 -27
-80 -103 -82 -153 -1 -29 -7 -39 -30 -51 l-29 -15 2 68 c3 132 -6 155 -68 172
-26 8 -37 6 -57 -10z"/>
<path d="M853 2173 c-11 -10 -23 -27 -27 -39 -7 -24 -37 -176 -41 -214 -2 -14
-6 -50 -10 -80 -5 -30 -7 -68 -6 -85 2 -31 32 -71 61 -80 23 -7 64 9 88 35 13
14 22 18 27 11 12 -20 63 -12 94 15 42 35 42 77 0 127 l-32 38 24 17 c34 25
34 25 52 52 39 57 2 132 -66 132 -32 0 -39 4 -52 33 -15 30 -50 55 -79 55 -7
0 -22 -8 -33 -17z"/>
<path d="M340 2139 c-14 -5 -38 -23 -55 -39 -16 -16 -42 -40 -57 -52 -16 -14
-30 -38 -34 -60 -5 -33 -2 -41 24 -68 18 -18 41 -30 56 -30 73 0 177 77 191
141 10 43 -11 85 -50 103 -38 18 -41 18 -75 5z"/>
</g>
</svg>
